<?xml version="1.0" encoding="UTF-8" standalone="no"?>
<!-- Created with Inkscape (http://www.inkscape.org/) -->

<svg
   width="300"
   height="300"
   viewBox="0 0 79.374998 79.375"
   version="1.1"
   id="svg1"
   inkscape:version="1.4.4 (dcaf3e7d9e, 2026-05-05)"
   sodipodi:docname="icon_light.svg"
   xmlns:inkscape="http://www.inkscape.org/namespaces/inkscape"
   xmlns:sodipodi="http://sodipodi.sourceforge.net/DTD/sodipodi-0.dtd"
   xmlns="http://www.w3.org/2000/svg"
   xmlns:svg="http://www.w3.org/2000/svg">
  <sodipodi:namedview
     id="namedview1"
     pagecolor="#ffffff"
     bordercolor="#000000"
     borderopacity="0.25"
     inkscape:showpageshadow="2"
     inkscape:pageopacity="0.0"
     inkscape:pagecheckerboard="0"
     inkscape:deskcolor="#d1d1d1"
     inkscape:document-units="mm"
     inkscape:zoom="1.4142136"
     inkscape:cx="102.17693"
     inkscape:cy="252.08356"
     inkscape:window-width="1920"
     inkscape:window-height="1004"
     inkscape:window-x="0"
     inkscape:window-y="0"
     inkscape:window-maximized="1"
     inkscape:current-layer="layer1" />
  <defs
     id="defs1" />
  <g
     inkscape:label="Layer 1"
     inkscape:groupmode="layer"
     id="layer1">
    <path
       id="path3"
       d="m 39.687503,68.411432 h -9.926942 c 0.847545,4.715116 4.967368,8.294254 9.926942,8.294254 4.959574,0 9.079398,-3.579138 9.926943,-8.294254 z"
       style="fill:#000000;stroke:none;stroke-width:3.33678;stroke-linecap:round;stroke-linejoin:round;stroke-miterlimit:10;stroke-dasharray:none;stroke-opacity:1;fill-opacity:1" />
    <path
       id="path4"
       d="m 59.296681,47.69897 c 0,-4.554635 -0.108995,-6.823756 -0.108995,-9.92145 0,-13.852133 -11.395126,-20.7112 -19.500183,-20.7112 -8.105056,0 -19.500183,6.859067 -19.500183,20.7112 0,3.097694 -0.109004,5.366815 -0.109004,9.92145 0,6.474418 -7.907069,10.255024 -7.907069,17.59049 v 0 c 0,3.197641 2.592683,3.121972 5.791547,3.121972 h 21.724709 21.724703 c 3.198867,0 5.791551,0.07567 5.791551,-3.121972 v 0 c 0,-7.335466 -7.907076,-11.116072 -7.907076,-17.59049 z"
       style="fill:#000000;stroke:#000000;stroke-width:3.33678;stroke-linecap:round;stroke-linejoin:round;stroke-miterlimit:10;stroke-dasharray:none;stroke-opacity:1;fill-opacity:1" />
    <path
       id="path5"
       d="m 45.037482,11.716215 c 0,2.954239 -2.395812,5.350105 -5.349979,5.350105 -2.954166,0 -5.349978,-2.395866 -5.349978,-5.350105 0,-2.9542384 2.395812,-5.350104 5.349978,-5.350104 2.954167,0 5.349979,2.3958656 5.349979,5.350104 z"
       style="fill:#000000;stroke:none;stroke-width:3.33678;stroke-linecap:round;stroke-linejoin:round;stroke-miterlimit:10;stroke-dasharray:none;stroke-opacity:1;fill-opacity:1" />
    <path
       id="path6"
       d="m 51.485264,11.344807 c 9.165045,4.3456 15.549426,13.59612 15.765209,24.360647"
       style="fill:none;stroke:#000000;stroke-width:3.33678;stroke-linecap:round;stroke-linejoin:round;stroke-miterlimit:10;stroke-dasharray:none;stroke-opacity:1" />
    <path
       id="path7"
       d="M 54.891013,4.3142234 C 66.662087,9.9244396 74.845001,21.847646 75.06078,35.705454"
       style="fill:none;stroke:#000000;stroke-width:3.33678;stroke-linecap:round;stroke-linejoin:round;stroke-miterlimit:10;stroke-dasharray:none;stroke-opacity:1" />
    <path
       id="path8"
       d="m 27.888623,11.344807 c -9.163925,4.3456 -15.548316,13.59612 -15.764089,24.360647"
       style="fill:none;stroke:#000000;stroke-width:3.33678;stroke-linecap:round;stroke-linejoin:round;stroke-miterlimit:10;stroke-dasharray:none;stroke-opacity:1" />
    <path
       id="path9"
       d="M 24.483991,4.3142234 C 12.712916,9.9244396 4.5300058,21.847646 4.3142234,35.705454"
       style="fill:none;stroke:#000000;stroke-width:3.33678;stroke-linecap:round;stroke-linejoin:round;stroke-miterlimit:10;stroke-dasharray:none;stroke-opacity:1" />
    <path
       d="m 49.136904,48.853423 v -8.598959 c 0,-2.608035 -2.116666,-4.724702 -4.724702,-4.724702 h -3.382886 l 2.154463,-2.173363 c 0.377976,-0.359077 0.377976,-0.96384 0,-1.322917 -0.359077,-0.377976 -0.963839,-0.377976 -1.322916,0 l -3.779762,3.779763 c -0.377976,0.359077 -0.377976,0.963839 0,1.322916 l 3.779762,3.779762 c 0.359077,0.377976 0.963839,0.377976 1.322916,0 0.377976,-0.359077 0.377976,-0.963839 0,-1.322917 l -2.154463,-2.173363 h 3.382886 c 1.568601,0 2.834822,1.26622 2.834822,2.834821 v 8.598959 c -2.154465,0.434673 -3.779762,2.343453 -3.779762,4.630209 0,2.608035 2.116666,4.724703 4.724702,4.724703 2.608036,0 4.724702,-2.116668 4.724702,-4.724703 0,-2.286756 -1.625297,-4.195536 -3.779762,-4.630209 z m -0.94494,7.46503 c -1.568601,0 -2.834822,-1.26622 -2.834822,-2.834821 0,-1.568601 1.266221,-2.834822 2.834822,-2.834822 1.568601,0 2.834821,1.266221 2.834821,2.834822 0,1.568601 -1.26622,2.834821 -2.834821,2.834821 z M 35.907738,36.474702 c 0,-2.608036 -2.116667,-4.724702 -4.724703,-4.724702 -2.608036,0 -4.724702,2.116666 -4.724702,4.724702 0,2.286756 1.625298,4.195537 3.779762,4.630209 v 7.750402 c -2.154464,0.438452 -3.779762,2.347232 -3.779762,4.628319 0,2.606146 2.120446,4.724703 4.724702,4.724703 2.604256,0 4.724703,-2.118557 4.724703,-4.724703 0,-2.282976 -1.625297,-4.189867 -3.779762,-4.628319 v -7.750402 c 2.154465,-0.434672 3.779762,-2.343453 3.779762,-4.630209 z m -7.559524,0 c 0,-1.5686 1.26622,-2.834821 2.834821,-2.834821 1.568602,0 2.834822,1.266221 2.834822,2.834821 0,1.568602 -1.26622,2.834822 -2.834822,2.834822 -1.568601,0 -2.834821,-1.26622 -2.834821,-2.834822 z m 5.669643,17.00893 c 0,1.562932 -1.27189,2.834821 -2.834822,2.834821 -1.562931,0 -2.834821,-1.271889 -2.834821,-2.834821 0,-1.562932 1.27189,-2.834822 2.834821,-2.834822 1.562932,0 2.834822,1.27189 2.834822,2.834822 z"
       id="path1"
       style="stroke-width:1.8;stroke:#ffffff;stroke-opacity:1;stroke-dasharray:none;fill:#ffffff;fill-opacity:1" />
  </g>
</svg>
